<svg xmlns="http://www.w3.org/2000/svg" xmlns:xlink="http://www.w3.org/1999/xlink" viewBox="0,0,256,256" width="50px" height="50px"><g fill="#b92d20" fill-rule="nonzero" stroke="none" stroke-width="1" stroke-linecap="butt" stroke-linejoin="miter" stroke-miterlimit="10" stroke-dasharray="" stroke-dashoffset="0" font-family="none" font-weight="none" font-size="none" text-anchor="none" style="mix-blend-mode: normal"><g transform="scale(5.12,5.12)"><path d="M10.40625,0c-5.26172,0 -9.625,3.92578 -10.3125,9h49.8125c-0.6875,-5.07422 -5.05078,-9 -10.3125,-9zM0,11v28.59375c0,5.73438 4.66797,10.40625 10.40625,10.40625h29.1875c5.73828,0 10.40625,-4.66797 10.40625,-10.40625v-28.59375zM18.5625,16h7.40625l-2.3125,1.21875h-2.21875c0.82813,0.82031 2.5625,2.23828 2.5625,5.03125c0,2.71484 -1.51562,4.04297 -3.03125,5.25c-0.46875,0.48047 -1.03125,1.00781 -1.03125,1.8125c0,0.80469 0.57031,1.26953 0.96875,1.59375l1.28125,1.03125c1.58594,1.35547 3.03125,2.59766 3.03125,5.125c0,3.44922 -3.29687,6.9375 -9.5,6.9375c-5.23047,0 -7.75,-2.53125 -7.75,-5.25c0,-1.31641 0.64844,-3.18359 2.78125,-4.46875c2.23047,-1.39453 5.27734,-1.57422 6.90625,-1.6875c-0.50781,-0.65625 -1.09375,-1.35547 -1.09375,-2.5c0,-0.61328 0.19141,-0.99219 0.375,-1.4375c-0.40234,0.03516 -0.79687,0.0625 -1.15625,0.0625c-3.82422,0 -6,-2.88672 -6,-5.75c0,-1.69141 0.75391,-3.58984 2.3125,-4.9375c2.05078,-1.73047 4.52344,-2.03125 6.46875,-2.03125zM16.28125,17.25c-0.9375,0 -1.94922,0.47656 -2.53125,1.21875c-0.61328,0.76172 -0.8125,1.73438 -0.8125,2.6875c0,2.46094 1.43359,6.53125 4.53125,6.53125c0.91016,0 1.88672,-0.44531 2.46875,-1.03125c0.82422,-0.84766 0.875,-2.00391 0.875,-2.65625c0,-2.64844 -1.53906,-6.75 -4.53125,-6.75zM34,24h4v5h5v4h-5v5h-4v-5h-5v-4h5zM18.03125,33.625c-0.32422,0 -2.26562,0.04688 -3.78125,0.5625c-0.79687,0.29688 -3.09375,1.17578 -3.09375,3.78125c0,2.60547 2.48438,4.5 6.34375,4.5c3.46484,0 5.3125,-1.69531 5.3125,-3.96875c0,-1.87109 -1.19922,-2.86328 -3.9375,-4.84375c-0.28906,-0.03125 -0.48047,-0.03125 -0.84375,-0.03125z"></path></g></g></svg>